<mxfile host="app.diagrams.net" agent="Mozilla/5.0 (Windows NT 10.0; Win64; x64) AppleWebKit/537.36 (KHTML, like Gecko) Chrome/131.0.0.0 Safari/537.36 Edg/131.0.0.0" version="24.8.4">
  <diagram id="R2lEEEUBdFMjLlhIrx00" name="Page-1">
    <mxGraphModel dx="1434" dy="784" grid="1" gridSize="10" guides="1" tooltips="1" connect="1" arrows="1" fold="1" page="1" pageScale="1" pageWidth="850" pageHeight="1100" math="0" shadow="0" extFonts="Permanent Marker^https://fonts.googleapis.com/css?family=Permanent+Marker">
      <root>
        <mxCell id="0" />
        <mxCell id="1" parent="0" />
        <mxCell id="S3o-j_eBomhr8zl3St8w-1" value="User" style="swimlane;fontStyle=1;childLayout=stackLayout;horizontal=1;startSize=26;horizontalStack=0;resizeParent=1;resizeParentMax=0;resizeLast=0;collapsible=1;marginBottom=0;align=center;fontSize=14;fontFamily=Verdana;" parent="1" vertex="1">
          <mxGeometry x="383.8665957446808" y="153.03030303030303" width="185.531914893617" height="280.5454545454545" as="geometry" />
        </mxCell>
        <mxCell id="S3o-j_eBomhr8zl3St8w-2" value="&lt;u&gt;Username&lt;/u&gt;" style="text;strokeColor=none;fillColor=none;spacingLeft=4;spacingRight=4;overflow=hidden;rotatable=0;points=[[0,0.5],[1,0.5]];portConstraint=eastwest;fontSize=12;whiteSpace=wrap;html=1;fontStyle=1;fontFamily=Verdana;" parent="S3o-j_eBomhr8zl3St8w-1" vertex="1">
          <mxGeometry y="26" width="185.531914893617" height="31.818181818181817" as="geometry" />
        </mxCell>
        <mxCell id="S3o-j_eBomhr8zl3St8w-3" value="Password" style="text;strokeColor=none;fillColor=none;spacingLeft=4;spacingRight=4;overflow=hidden;rotatable=0;points=[[0,0.5],[1,0.5]];portConstraint=eastwest;fontSize=12;whiteSpace=wrap;html=1;fontFamily=Verdana;" parent="S3o-j_eBomhr8zl3St8w-1" vertex="1">
          <mxGeometry y="57.81818181818181" width="185.531914893617" height="31.818181818181817" as="geometry" />
        </mxCell>
        <mxCell id="S3o-j_eBomhr8zl3St8w-4" value="Email" style="text;strokeColor=none;fillColor=none;spacingLeft=4;spacingRight=4;overflow=hidden;rotatable=0;points=[[0,0.5],[1,0.5]];portConstraint=eastwest;fontSize=12;whiteSpace=wrap;html=1;fontFamily=Verdana;" parent="S3o-j_eBomhr8zl3St8w-1" vertex="1">
          <mxGeometry y="89.63636363636363" width="185.531914893617" height="31.818181818181817" as="geometry" />
        </mxCell>
        <mxCell id="S3o-j_eBomhr8zl3St8w-5" value="Alias" style="text;strokeColor=none;fillColor=none;spacingLeft=4;spacingRight=4;overflow=hidden;rotatable=0;points=[[0,0.5],[1,0.5]];portConstraint=eastwest;fontSize=12;whiteSpace=wrap;html=1;fontFamily=Verdana;" parent="S3o-j_eBomhr8zl3St8w-1" vertex="1">
          <mxGeometry y="121.45454545454544" width="185.531914893617" height="31.818181818181817" as="geometry" />
        </mxCell>
        <mxCell id="S3o-j_eBomhr8zl3St8w-6" value="Role" style="text;strokeColor=none;fillColor=none;spacingLeft=4;spacingRight=4;overflow=hidden;rotatable=0;points=[[0,0.5],[1,0.5]];portConstraint=eastwest;fontSize=12;whiteSpace=wrap;html=1;fontFamily=Verdana;" parent="S3o-j_eBomhr8zl3St8w-1" vertex="1">
          <mxGeometry y="153.27272727272725" width="185.531914893617" height="31.818181818181817" as="geometry" />
        </mxCell>
        <mxCell id="S3o-j_eBomhr8zl3St8w-8" value="Type of account" style="text;strokeColor=none;fillColor=none;spacingLeft=4;spacingRight=4;overflow=hidden;rotatable=0;points=[[0,0.5],[1,0.5]];portConstraint=eastwest;fontSize=12;whiteSpace=wrap;html=1;fontFamily=Verdana;" parent="S3o-j_eBomhr8zl3St8w-1" vertex="1">
          <mxGeometry y="185.09090909090907" width="185.531914893617" height="31.818181818181817" as="geometry" />
        </mxCell>
        <mxCell id="S3o-j_eBomhr8zl3St8w-9" value="Create date" style="text;strokeColor=none;fillColor=none;spacingLeft=4;spacingRight=4;overflow=hidden;rotatable=0;points=[[0,0.5],[1,0.5]];portConstraint=eastwest;fontSize=12;whiteSpace=wrap;html=1;fontFamily=Verdana;" parent="S3o-j_eBomhr8zl3St8w-1" vertex="1">
          <mxGeometry y="216.90909090909088" width="185.531914893617" height="31.818181818181817" as="geometry" />
        </mxCell>
        <mxCell id="S3o-j_eBomhr8zl3St8w-7" value="Library visibility" style="text;strokeColor=none;fillColor=none;spacingLeft=4;spacingRight=4;overflow=hidden;rotatable=0;points=[[0,0.5],[1,0.5]];portConstraint=eastwest;fontSize=12;whiteSpace=wrap;html=1;fontFamily=Verdana;" parent="S3o-j_eBomhr8zl3St8w-1" vertex="1">
          <mxGeometry y="248.7272727272727" width="185.531914893617" height="31.818181818181817" as="geometry" />
        </mxCell>
        <mxCell id="S3o-j_eBomhr8zl3St8w-47" value="" style="group;fontFamily=Verdana;" parent="1" vertex="1" connectable="0">
          <mxGeometry x="1007.04" y="560" width="231.91" height="230" as="geometry" />
        </mxCell>
        <mxCell id="S3o-j_eBomhr8zl3St8w-46" value="" style="rounded=0;whiteSpace=wrap;html=1;container=0;fontFamily=Verdana;" parent="S3o-j_eBomhr8zl3St8w-47" vertex="1">
          <mxGeometry width="231.91" height="230" as="geometry" />
        </mxCell>
        <mxCell id="w71ZSBSWqUJJXCdsCgRT-12" value="" style="group;fontFamily=Verdana;" parent="S3o-j_eBomhr8zl3St8w-47" vertex="1" connectable="0">
          <mxGeometry x="23.189510669724772" y="34.697142857142865" width="185.52608514678903" height="160.5531428571429" as="geometry" />
        </mxCell>
        <mxCell id="S3o-j_eBomhr8zl3St8w-27" value="Book" style="swimlane;fontStyle=1;childLayout=stackLayout;horizontal=1;startSize=26;horizontalStack=0;resizeParent=1;resizeParentMax=0;resizeLast=0;collapsible=1;marginBottom=0;align=center;fontSize=14;container=0;fontFamily=Verdana;" parent="w71ZSBSWqUJJXCdsCgRT-12" vertex="1">
          <mxGeometry width="185.52608514678897" height="160.55314285714286" as="geometry" />
        </mxCell>
        <mxCell id="S3o-j_eBomhr8zl3St8w-28" value="Title" style="text;strokeColor=none;fillColor=none;spacingLeft=4;spacingRight=4;overflow=hidden;rotatable=0;points=[[0,0.5],[1,0.5]];portConstraint=eastwest;fontSize=12;whiteSpace=wrap;html=1;fontStyle=7;fontFamily=Verdana;" parent="w71ZSBSWqUJJXCdsCgRT-12" vertex="1">
          <mxGeometry x="5.328958069923761e-14" y="22.55314285714289" width="185.52608514678897" height="27.6" as="geometry" />
        </mxCell>
        <mxCell id="S3o-j_eBomhr8zl3St8w-30" value="Description" style="text;strokeColor=none;fillColor=none;spacingLeft=4;spacingRight=4;overflow=hidden;rotatable=0;points=[[0,0.5],[1,0.5]];portConstraint=eastwest;fontSize=12;whiteSpace=wrap;html=1;fontFamily=Verdana;" parent="w71ZSBSWqUJJXCdsCgRT-12" vertex="1">
          <mxGeometry x="5.328958069923761e-14" y="50.153142857142896" width="185.52608514678897" height="27.6" as="geometry" />
        </mxCell>
        <mxCell id="S3o-j_eBomhr8zl3St8w-33" value="Path to book" style="text;strokeColor=none;fillColor=none;spacingLeft=4;spacingRight=4;overflow=hidden;rotatable=0;points=[[0,0.5],[1,0.5]];portConstraint=eastwest;fontSize=12;whiteSpace=wrap;html=1;fontFamily=Verdana;" parent="w71ZSBSWqUJJXCdsCgRT-12" vertex="1">
          <mxGeometry x="5.328958069923761e-14" y="77.75314285714289" width="185.52608514678897" height="27.6" as="geometry" />
        </mxCell>
        <mxCell id="S3o-j_eBomhr8zl3St8w-34" value="Progress" style="text;strokeColor=none;fillColor=none;spacingLeft=4;spacingRight=4;overflow=hidden;rotatable=0;points=[[0,0.5],[1,0.5]];portConstraint=eastwest;fontSize=12;whiteSpace=wrap;html=1;fontFamily=Verdana;" parent="w71ZSBSWqUJJXCdsCgRT-12" vertex="1">
          <mxGeometry x="5.328958069923761e-14" y="105.35314285714288" width="185.52608514678897" height="27.6" as="geometry" />
        </mxCell>
        <mxCell id="S3o-j_eBomhr8zl3St8w-35" value="Reading time" style="text;strokeColor=none;fillColor=none;spacingLeft=4;spacingRight=4;overflow=hidden;rotatable=0;points=[[0,0.5],[1,0.5]];portConstraint=eastwest;fontSize=12;whiteSpace=wrap;html=1;fontFamily=Verdana;" parent="w71ZSBSWqUJJXCdsCgRT-12" vertex="1">
          <mxGeometry x="5.328958069923761e-14" y="132.95314285714286" width="185.52608514678897" height="27.6" as="geometry" />
        </mxCell>
        <mxCell id="S3o-j_eBomhr8zl3St8w-61" value="Tag" style="swimlane;fontStyle=1;childLayout=stackLayout;horizontal=1;startSize=26;horizontalStack=0;resizeParent=1;resizeParentMax=0;resizeLast=0;collapsible=1;marginBottom=0;align=center;fontSize=14;fontFamily=Verdana;" parent="1" vertex="1">
          <mxGeometry x="644.7708510638298" y="598.4848484848485" width="185.53" height="85.41818181818181" as="geometry" />
        </mxCell>
        <mxCell id="S3o-j_eBomhr8zl3St8w-62" value="Tag name" style="text;strokeColor=none;fillColor=none;spacingLeft=4;spacingRight=4;overflow=hidden;rotatable=0;points=[[0,0.5],[1,0.5]];portConstraint=eastwest;fontSize=12;whiteSpace=wrap;html=1;fontStyle=5;fontFamily=Verdana;" parent="S3o-j_eBomhr8zl3St8w-61" vertex="1">
          <mxGeometry y="26" width="185.53" height="31.818181818181817" as="geometry" />
        </mxCell>
        <mxCell id="w71ZSBSWqUJJXCdsCgRT-33" value="Description" style="text;strokeColor=none;fillColor=none;spacingLeft=4;spacingRight=4;overflow=hidden;rotatable=0;points=[[0,0.5],[1,0.5]];portConstraint=eastwest;fontSize=12;whiteSpace=wrap;html=1;fontFamily=Verdana;" parent="S3o-j_eBomhr8zl3St8w-61" vertex="1">
          <mxGeometry y="57.81818181818181" width="185.53" height="27.6" as="geometry" />
        </mxCell>
        <mxCell id="S3o-j_eBomhr8zl3St8w-66" value="" style="fontSize=12;html=1;endArrow=ERzeroToMany;endFill=1;rounded=0;entryX=0.01;entryY=0.356;entryDx=0;entryDy=0;entryPerimeter=0;exitX=1;exitY=0.25;exitDx=0;exitDy=0;startArrow=ERoneToMany;startFill=0;fontFamily=Verdana;" parent="1" source="S3o-j_eBomhr8zl3St8w-61" target="S3o-j_eBomhr8zl3St8w-46" edge="1">
          <mxGeometry width="100" height="100" relative="1" as="geometry">
            <mxPoint x="488.2282978723404" y="609.090909090909" as="sourcePoint" />
            <mxPoint x="604.185744680851" y="503.030303030303" as="targetPoint" />
          </mxGeometry>
        </mxCell>
        <mxCell id="S3o-j_eBomhr8zl3St8w-99" value="Text" style="edgeLabel;html=1;align=center;verticalAlign=middle;resizable=0;points=[];fontFamily=Verdana;" parent="S3o-j_eBomhr8zl3St8w-66" vertex="1" connectable="0">
          <mxGeometry x="-0.1983" y="-2" relative="1" as="geometry">
            <mxPoint as="offset" />
          </mxGeometry>
        </mxCell>
        <mxCell id="S3o-j_eBomhr8zl3St8w-100" value="Contains" style="edgeLabel;html=1;align=center;verticalAlign=middle;resizable=0;points=[];fontFamily=Verdana;" parent="S3o-j_eBomhr8zl3St8w-66" vertex="1" connectable="0">
          <mxGeometry x="-0.2209" y="-1" relative="1" as="geometry">
            <mxPoint as="offset" />
          </mxGeometry>
        </mxCell>
        <mxCell id="S3o-j_eBomhr8zl3St8w-90" value="" style="group;fontFamily=Verdana;" parent="1" vertex="1" connectable="0">
          <mxGeometry x="279.50489361702125" y="948.4848484848485" width="231.91489361702128" height="201.5151515151515" as="geometry" />
        </mxCell>
        <mxCell id="S3o-j_eBomhr8zl3St8w-93" value="" style="group;fontFamily=Verdana;" parent="1" vertex="1" connectable="0">
          <mxGeometry x="302.69638297872336" y="534.8484848484848" width="231.91489361702128" height="201.5151515151515" as="geometry" />
        </mxCell>
        <mxCell id="S3o-j_eBomhr8zl3St8w-73" value="" style="rounded=0;whiteSpace=wrap;html=1;container=0;fontFamily=Verdana;" parent="S3o-j_eBomhr8zl3St8w-93" vertex="1">
          <mxGeometry width="231.91489361702128" height="201.5151515151515" as="geometry" />
        </mxCell>
        <mxCell id="S3o-j_eBomhr8zl3St8w-81" value="" style="group;fontFamily=Verdana;" parent="S3o-j_eBomhr8zl3St8w-93" vertex="1" connectable="0">
          <mxGeometry x="23.191489361702125" y="21.21212121212121" width="185.531914893617" height="154.84848484848484" as="geometry" />
        </mxCell>
        <mxCell id="S3o-j_eBomhr8zl3St8w-74" value="Collection" style="swimlane;fontStyle=1;childLayout=stackLayout;horizontal=1;startSize=26;horizontalStack=0;resizeParent=1;resizeParentMax=0;resizeLast=0;collapsible=1;marginBottom=0;align=center;fontSize=14;container=0;fontFamily=Verdana;" parent="S3o-j_eBomhr8zl3St8w-81" vertex="1">
          <mxGeometry width="185.531914893617" height="154.84848484848484" as="geometry" />
        </mxCell>
        <mxCell id="S3o-j_eBomhr8zl3St8w-75" value="ID" style="text;strokeColor=none;fillColor=none;spacingLeft=4;spacingRight=4;overflow=hidden;rotatable=0;points=[[0,0.5],[1,0.5]];portConstraint=eastwest;fontSize=12;whiteSpace=wrap;html=1;fontStyle=7;container=0;fontFamily=Verdana;" parent="S3o-j_eBomhr8zl3St8w-81" vertex="1">
          <mxGeometry y="27.575757575757574" width="185.531914893617" height="31.818181818181817" as="geometry" />
        </mxCell>
        <mxCell id="S3o-j_eBomhr8zl3St8w-76" value="Name" style="text;strokeColor=none;fillColor=none;spacingLeft=4;spacingRight=4;overflow=hidden;rotatable=0;points=[[0,0.5],[1,0.5]];portConstraint=eastwest;fontSize=12;whiteSpace=wrap;html=1;container=0;fontFamily=Verdana;" parent="S3o-j_eBomhr8zl3St8w-81" vertex="1">
          <mxGeometry y="59.39393939393939" width="185.531914893617" height="31.818181818181817" as="geometry" />
        </mxCell>
        <mxCell id="S3o-j_eBomhr8zl3St8w-77" value="Date created" style="text;strokeColor=none;fillColor=none;spacingLeft=4;spacingRight=4;overflow=hidden;rotatable=0;points=[[0,0.5],[1,0.5]];portConstraint=eastwest;fontSize=12;whiteSpace=wrap;html=1;container=0;fontFamily=Verdana;" parent="S3o-j_eBomhr8zl3St8w-81" vertex="1">
          <mxGeometry y="91.2121212121212" width="185.531914893617" height="31.818181818181817" as="geometry" />
        </mxCell>
        <mxCell id="S3o-j_eBomhr8zl3St8w-80" value="Quantity of book" style="text;strokeColor=none;fillColor=none;spacingLeft=4;spacingRight=4;overflow=hidden;rotatable=0;points=[[0,0.5],[1,0.5]];portConstraint=eastwest;fontSize=12;whiteSpace=wrap;html=1;container=0;fontFamily=Verdana;" parent="S3o-j_eBomhr8zl3St8w-81" vertex="1">
          <mxGeometry y="123.03030303030303" width="185.531914893617" height="31.818181818181817" as="geometry" />
        </mxCell>
        <mxCell id="S3o-j_eBomhr8zl3St8w-102" style="edgeStyle=orthogonalEdgeStyle;rounded=0;orthogonalLoop=1;jettySize=auto;html=1;entryX=0.5;entryY=1;entryDx=0;entryDy=0;startArrow=ERzeroToMany;startFill=0;endArrow=ERmandOne;endFill=0;fontFamily=Verdana;" parent="1" source="S3o-j_eBomhr8zl3St8w-94" target="S3o-j_eBomhr8zl3St8w-73" edge="1">
          <mxGeometry relative="1" as="geometry" />
        </mxCell>
        <mxCell id="S3o-j_eBomhr8zl3St8w-104" value="Store" style="edgeLabel;html=1;align=center;verticalAlign=middle;resizable=0;points=[];fontFamily=Verdana;" parent="S3o-j_eBomhr8zl3St8w-102" vertex="1" connectable="0">
          <mxGeometry x="0.2655" y="-3" relative="1" as="geometry">
            <mxPoint x="44" y="3" as="offset" />
          </mxGeometry>
        </mxCell>
        <mxCell id="S3o-j_eBomhr8zl3St8w-103" style="edgeStyle=orthogonalEdgeStyle;rounded=0;orthogonalLoop=1;jettySize=auto;html=1;entryX=0.5;entryY=1;entryDx=0;entryDy=0;startArrow=ERmandOne;startFill=0;endArrow=ERmandOne;endFill=0;fontFamily=Verdana;" parent="1" source="S3o-j_eBomhr8zl3St8w-94" target="S3o-j_eBomhr8zl3St8w-46" edge="1">
          <mxGeometry relative="1" as="geometry" />
        </mxCell>
        <mxCell id="S3o-j_eBomhr8zl3St8w-110" value="Belongs to" style="edgeLabel;html=1;align=center;verticalAlign=middle;resizable=0;points=[];fontFamily=Verdana;" parent="S3o-j_eBomhr8zl3St8w-103" vertex="1" connectable="0">
          <mxGeometry x="-0.1046" y="-4" relative="1" as="geometry">
            <mxPoint y="-4" as="offset" />
          </mxGeometry>
        </mxCell>
        <mxCell id="S3o-j_eBomhr8zl3St8w-94" value="Collection&#39;s content" style="swimlane;childLayout=stackLayout;horizontal=1;startSize=50;horizontalStack=0;rounded=1;fontSize=14;fontStyle=0;strokeWidth=2;resizeParent=0;resizeLast=1;shadow=0;dashed=0;align=center;arcSize=4;whiteSpace=wrap;html=1;fontFamily=Verdana;" parent="1" vertex="1">
          <mxGeometry x="644.7708510638298" y="757.5757575757575" width="185.531914893617" height="127.27272727272727" as="geometry" />
        </mxCell>
        <mxCell id="S3o-j_eBomhr8zl3St8w-96" style="rounded=0;orthogonalLoop=1;jettySize=auto;html=1;entryX=0.57;entryY=0.011;entryDx=0;entryDy=0;entryPerimeter=0;endArrow=ERoneToMany;endFill=0;startArrow=ERmandOne;startFill=0;fontFamily=Verdana;" parent="1" source="S3o-j_eBomhr8zl3St8w-1" target="S3o-j_eBomhr8zl3St8w-73" edge="1">
          <mxGeometry relative="1" as="geometry" />
        </mxCell>
        <mxCell id="S3o-j_eBomhr8zl3St8w-97" value="Has" style="edgeLabel;html=1;align=center;verticalAlign=middle;resizable=0;points=[];fontFamily=Verdana;" parent="S3o-j_eBomhr8zl3St8w-96" vertex="1" connectable="0">
          <mxGeometry x="-0.0589" y="5" relative="1" as="geometry">
            <mxPoint as="offset" />
          </mxGeometry>
        </mxCell>
        <mxCell id="S3o-j_eBomhr8zl3St8w-106" style="edgeStyle=orthogonalEdgeStyle;rounded=0;orthogonalLoop=1;jettySize=auto;html=1;entryX=0;entryY=0.368;entryDx=0;entryDy=0;entryPerimeter=0;startArrow=ERmandOne;startFill=0;endArrow=ERoneToMany;endFill=0;fontFamily=Verdana;" parent="1" source="S3o-j_eBomhr8zl3St8w-2" target="S3o-j_eBomhr8zl3St8w-73" edge="1">
          <mxGeometry relative="1" as="geometry">
            <Array as="points">
              <mxPoint x="256.31340425531914" y="196.5151515151515" />
              <mxPoint x="256.31340425531914" y="609.090909090909" />
            </Array>
          </mxGeometry>
        </mxCell>
        <mxCell id="S3o-j_eBomhr8zl3St8w-65" style="rounded=0;orthogonalLoop=1;jettySize=auto;html=1;entryX=0;entryY=0.5;entryDx=0;entryDy=0;shape=link;fontFamily=Verdana;" parent="1" source="S3o-j_eBomhr8zl3St8w-62" target="S3o-j_eBomhr8zl3St8w-46" edge="1">
          <mxGeometry relative="1" as="geometry" />
        </mxCell>
        <mxCell id="w71ZSBSWqUJJXCdsCgRT-21" style="rounded=0;orthogonalLoop=1;jettySize=auto;html=1;entryX=0.5;entryY=0;entryDx=0;entryDy=0;fontFamily=Verdana;startArrow=ERmandOne;startFill=0;endArrow=ERoneToMany;endFill=0;" parent="1" source="w71ZSBSWqUJJXCdsCgRT-1" target="w71ZSBSWqUJJXCdsCgRT-27" edge="1">
          <mxGeometry relative="1" as="geometry">
            <mxPoint x="1123" y="358" as="targetPoint" />
          </mxGeometry>
        </mxCell>
        <mxCell id="w71ZSBSWqUJJXCdsCgRT-1" value="Author" style="swimlane;fontStyle=1;childLayout=stackLayout;horizontal=1;startSize=26;horizontalStack=0;resizeParent=1;resizeParentMax=0;resizeLast=0;collapsible=1;marginBottom=0;align=center;fontSize=14;fontFamily=Verdana;" parent="1" vertex="1">
          <mxGeometry x="1043" y="69.99999999999999" width="160" height="206" as="geometry" />
        </mxCell>
        <mxCell id="w71ZSBSWqUJJXCdsCgRT-19" value="&lt;b&gt;&lt;u&gt;AuthorID&lt;/u&gt;&lt;/b&gt;" style="text;strokeColor=none;fillColor=none;spacingLeft=4;spacingRight=4;overflow=hidden;rotatable=0;points=[[0,0.5],[1,0.5]];portConstraint=eastwest;fontSize=12;whiteSpace=wrap;html=1;fontFamily=Verdana;" parent="w71ZSBSWqUJJXCdsCgRT-1" vertex="1">
          <mxGeometry y="26" width="160" height="30" as="geometry" />
        </mxCell>
        <mxCell id="w71ZSBSWqUJJXCdsCgRT-2" value="Name" style="text;strokeColor=none;fillColor=none;spacingLeft=4;spacingRight=4;overflow=hidden;rotatable=0;points=[[0,0.5],[1,0.5]];portConstraint=eastwest;fontSize=12;whiteSpace=wrap;html=1;fontFamily=Verdana;" parent="w71ZSBSWqUJJXCdsCgRT-1" vertex="1">
          <mxGeometry y="56" width="160" height="30" as="geometry" />
        </mxCell>
        <mxCell id="w71ZSBSWqUJJXCdsCgRT-3" value="DOB" style="text;strokeColor=none;fillColor=none;spacingLeft=4;spacingRight=4;overflow=hidden;rotatable=0;points=[[0,0.5],[1,0.5]];portConstraint=eastwest;fontSize=12;whiteSpace=wrap;html=1;fontFamily=Verdana;" parent="w71ZSBSWqUJJXCdsCgRT-1" vertex="1">
          <mxGeometry y="86" width="160" height="30" as="geometry" />
        </mxCell>
        <mxCell id="w71ZSBSWqUJJXCdsCgRT-4" value="Description" style="text;strokeColor=none;fillColor=none;spacingLeft=4;spacingRight=4;overflow=hidden;rotatable=0;points=[[0,0.5],[1,0.5]];portConstraint=eastwest;fontSize=12;whiteSpace=wrap;html=1;fontFamily=Verdana;" parent="w71ZSBSWqUJJXCdsCgRT-1" vertex="1">
          <mxGeometry y="116" width="160" height="30" as="geometry" />
        </mxCell>
        <mxCell id="w71ZSBSWqUJJXCdsCgRT-5" value="Link to image" style="text;strokeColor=none;fillColor=none;spacingLeft=4;spacingRight=4;overflow=hidden;rotatable=0;points=[[0,0.5],[1,0.5]];portConstraint=eastwest;fontSize=12;whiteSpace=wrap;html=1;fontFamily=Verdana;" parent="w71ZSBSWqUJJXCdsCgRT-1" vertex="1">
          <mxGeometry y="146" width="160" height="30" as="geometry" />
        </mxCell>
        <mxCell id="w71ZSBSWqUJJXCdsCgRT-34" value="Popularity" style="text;strokeColor=none;fillColor=none;spacingLeft=4;spacingRight=4;overflow=hidden;rotatable=0;points=[[0,0.5],[1,0.5]];portConstraint=eastwest;fontSize=12;whiteSpace=wrap;html=1;fontFamily=Verdana;" parent="w71ZSBSWqUJJXCdsCgRT-1" vertex="1">
          <mxGeometry y="176" width="160" height="30" as="geometry" />
        </mxCell>
        <mxCell id="w71ZSBSWqUJJXCdsCgRT-22" style="rounded=0;orthogonalLoop=1;jettySize=auto;html=1;fontFamily=Verdana;exitX=0.5;exitY=1;exitDx=0;exitDy=0;exitPerimeter=0;endArrow=ERmandOne;endFill=0;" parent="1" source="w71ZSBSWqUJJXCdsCgRT-44" target="S3o-j_eBomhr8zl3St8w-46" edge="1">
          <mxGeometry relative="1" as="geometry">
            <mxPoint x="1130" y="480" as="sourcePoint" />
            <mxPoint x="1124" y="560" as="targetPoint" />
          </mxGeometry>
        </mxCell>
        <mxCell id="w71ZSBSWqUJJXCdsCgRT-27" value="Written by" style="swimlane;fontStyle=1;childLayout=stackLayout;horizontal=1;startSize=26;horizontalStack=0;resizeParent=1;resizeParentMax=0;resizeLast=0;collapsible=1;marginBottom=0;align=center;fontSize=14;fontFamily=Verdana;rounded=1;" parent="1" vertex="1">
          <mxGeometry x="1043" y="343" width="160" height="146" as="geometry" />
        </mxCell>
        <mxCell id="w71ZSBSWqUJJXCdsCgRT-28" value="&lt;b&gt;&lt;u&gt;ISBN&lt;/u&gt;&lt;/b&gt;" style="text;strokeColor=none;fillColor=none;spacingLeft=4;spacingRight=4;overflow=hidden;rotatable=0;points=[[0,0.5],[1,0.5]];portConstraint=eastwest;fontSize=12;whiteSpace=wrap;html=1;fontFamily=Verdana;" parent="w71ZSBSWqUJJXCdsCgRT-27" vertex="1">
          <mxGeometry y="26" width="160" height="30" as="geometry" />
        </mxCell>
        <mxCell id="w71ZSBSWqUJJXCdsCgRT-29" value="Role" style="text;strokeColor=none;fillColor=none;spacingLeft=4;spacingRight=4;overflow=hidden;rotatable=0;points=[[0,0.5],[1,0.5]];portConstraint=eastwest;fontSize=12;whiteSpace=wrap;html=1;fontFamily=Verdana;" parent="w71ZSBSWqUJJXCdsCgRT-27" vertex="1">
          <mxGeometry y="56" width="160" height="30" as="geometry" />
        </mxCell>
        <mxCell id="w71ZSBSWqUJJXCdsCgRT-30" value="Author&#39;s importance" style="text;strokeColor=none;fillColor=none;spacingLeft=4;spacingRight=4;overflow=hidden;rotatable=0;points=[[0,0.5],[1,0.5]];portConstraint=eastwest;fontSize=12;whiteSpace=wrap;html=1;fontFamily=Verdana;" parent="w71ZSBSWqUJJXCdsCgRT-27" vertex="1">
          <mxGeometry y="86" width="160" height="30" as="geometry" />
        </mxCell>
        <mxCell id="w71ZSBSWqUJJXCdsCgRT-44" value="Is notable work?" style="text;strokeColor=none;fillColor=none;spacingLeft=4;spacingRight=4;overflow=hidden;rotatable=0;points=[[0,0.5],[1,0.5]];portConstraint=eastwest;fontSize=12;whiteSpace=wrap;html=1;fontFamily=Verdana;" parent="w71ZSBSWqUJJXCdsCgRT-27" vertex="1">
          <mxGeometry y="116" width="160" height="30" as="geometry" />
        </mxCell>
        <mxCell id="w71ZSBSWqUJJXCdsCgRT-41" style="edgeStyle=orthogonalEdgeStyle;rounded=0;orthogonalLoop=1;jettySize=auto;html=1;entryX=0;entryY=0.5;entryDx=0;entryDy=0;endArrow=ERzeroToMany;endFill=0;startArrow=ERoneToMany;startFill=0;" parent="1" source="w71ZSBSWqUJJXCdsCgRT-35" target="w71ZSBSWqUJJXCdsCgRT-4" edge="1">
          <mxGeometry relative="1" as="geometry" />
        </mxCell>
        <mxCell id="w71ZSBSWqUJJXCdsCgRT-35" value="Author&#39;s genres" style="swimlane;fontStyle=1;childLayout=stackLayout;horizontal=1;startSize=26;horizontalStack=0;resizeParent=1;resizeParentMax=0;resizeLast=0;collapsible=1;marginBottom=0;align=center;fontSize=14;fontFamily=Verdana;rounded=1;" parent="1" vertex="1">
          <mxGeometry x="820" y="388" width="160" height="56" as="geometry" />
        </mxCell>
        <mxCell id="w71ZSBSWqUJJXCdsCgRT-40" style="edgeStyle=orthogonalEdgeStyle;rounded=0;orthogonalLoop=1;jettySize=auto;html=1;entryX=0.47;entryY=-0.006;entryDx=0;entryDy=0;entryPerimeter=0;exitX=0;exitY=0.5;exitDx=0;exitDy=0;endArrow=ERmandOne;endFill=0;startArrow=ERzeroToOne;startFill=0;" parent="1" source="w71ZSBSWqUJJXCdsCgRT-35" target="S3o-j_eBomhr8zl3St8w-61" edge="1">
          <mxGeometry relative="1" as="geometry">
            <mxPoint x="790" y="431" as="sourcePoint" />
            <Array as="points">
              <mxPoint x="732" y="416" />
            </Array>
          </mxGeometry>
        </mxCell>
        <mxCell id="w71ZSBSWqUJJXCdsCgRT-45" value="&lt;font style=&quot;font-size: 19px;&quot;&gt;Nếu notable work và importance cao vào role là main hoặc sub thì show&lt;/font&gt;" style="rounded=1;whiteSpace=wrap;html=1;" parent="1" vertex="1">
          <mxGeometry x="1330" y="210" width="165" height="133" as="geometry" />
        </mxCell>
        <mxCell id="xUlKN4l0hj82p65qD1O_-4" style="edgeStyle=orthogonalEdgeStyle;rounded=0;orthogonalLoop=1;jettySize=auto;html=1;entryX=0.5;entryY=0;entryDx=0;entryDy=0;startArrow=ERzeroToMany;startFill=0;endArrow=ERmandOne;endFill=0;" edge="1" parent="1" source="xUlKN4l0hj82p65qD1O_-1" target="S3o-j_eBomhr8zl3St8w-1">
          <mxGeometry relative="1" as="geometry">
            <Array as="points">
              <mxPoint x="740" y="60" />
              <mxPoint x="477" y="60" />
            </Array>
          </mxGeometry>
        </mxCell>
        <mxCell id="xUlKN4l0hj82p65qD1O_-1" value="Is friend with?" style="swimlane;childLayout=stackLayout;horizontal=1;startSize=50;horizontalStack=0;rounded=1;fontSize=14;fontStyle=0;strokeWidth=2;resizeParent=0;resizeLast=1;shadow=0;dashed=0;align=center;arcSize=4;whiteSpace=wrap;html=1;" vertex="1" parent="1">
          <mxGeometry x="660" y="140" width="160" height="120" as="geometry" />
        </mxCell>
        <mxCell id="xUlKN4l0hj82p65qD1O_-2" value="&lt;u&gt;&lt;b&gt;&lt;i&gt;- Date added&lt;/i&gt;&lt;/b&gt;&lt;/u&gt;" style="align=left;strokeColor=none;fillColor=none;spacingLeft=4;fontSize=12;verticalAlign=top;resizable=0;rotatable=0;part=1;html=1;" vertex="1" parent="xUlKN4l0hj82p65qD1O_-1">
          <mxGeometry y="50" width="160" height="70" as="geometry" />
        </mxCell>
        <mxCell id="xUlKN4l0hj82p65qD1O_-3" style="rounded=0;orthogonalLoop=1;jettySize=auto;html=1;entryX=1;entryY=0.5;entryDx=0;entryDy=0;endArrow=ERmandOne;endFill=0;startArrow=ERzeroToMany;startFill=0;" edge="1" parent="1" source="xUlKN4l0hj82p65qD1O_-2" target="S3o-j_eBomhr8zl3St8w-3">
          <mxGeometry relative="1" as="geometry" />
        </mxCell>
      </root>
    </mxGraphModel>
  </diagram>
</mxfile>
